<?xml version="1.0" encoding="utf-8"?>
<!-- Generator: Adobe Illustrator 28.0.0, SVG Export Plug-In . SVG Version: 6.00 Build 0)  -->
<svg version="1.1" xmlns="http://www.w3.org/2000/svg" xmlns:xlink="http://www.w3.org/1999/xlink" x="0px" y="0px"
	 viewBox="0 0 894.4 330.3" style="enable-background:new 0 0 894.4 330.3;" xml:space="preserve">
<style type="text/css">
	.st0{fill:#191D64;}
</style>
<g id="Clearspace">
</g>
<g id="Logo">
	<g>
		<path class="st0" d="M307.6,165.8l17.8-39.7l15.5,39.7H307.6 M300.9,105.2v3.2c3.2,0.7,10.2,2.6,7.4,8.9L268.6,206h20.9l12.4-27.6
			h43.9l10.8,27.6h27.5l-39.3-100.8H300.9z"/>
		<path class="st0" d="M453.4,206l42-100.8h-19.9l-30.8,73.9l-29.3-73.9h-37.3v3.2c4.3,0.8,9.1,2.7,11.4,8.3l35.4,89.4H453.4"/>
		<path class="st0" d="M509.8,108.4c2.2,0.4,10,2.7,10,8.3V206h26.6V105.2h-36.6V108.4"/>
		<path class="st0" d="M637.5,206l42-100.8h-19.9l-30.8,73.9l-29.3-73.9h-37.3v3.2c4.3,0.8,9.2,2.7,11.4,8.3L609,206H637.5"/>
		<g>
			<g>
				<path class="st0" d="M714.9,165.8l17.8-39.7l15.6,39.7H714.9 M708.2,105.2v3.2c3.2,0.7,10.2,2.6,7.3,8.9L676,206h20.9l12.4-27.6
					h43.9L764,206h27.6l-39.3-100.8H708.2z"/>
			</g>
		</g>
		<path class="st0" d="M184.4,208.5l10.3-106.7v0l-91.9,0l0,126.7C124.5,219.1,152.6,212,184.4,208.5z"/>
		<path class="st0" d="M229.9,206l0-104.2l-35.2,0v0l10.2,105C213.1,206.3,221.4,206,229.9,206z"/>
	</g>
</g>
</svg>
