<?xml version="1.0" encoding="utf-8"?>
<!-- Generator: Adobe Illustrator 15.1.0, SVG Export Plug-In . SVG Version: 6.00 Build 0)  -->
<!DOCTYPE svg PUBLIC "-//W3C//DTD SVG 1.1//EN" "http://www.w3.org/Graphics/SVG/1.1/DTD/svg11.dtd">
<svg version="1.1" id="Layer_2" xmlns="http://www.w3.org/2000/svg" xmlns:xlink="http://www.w3.org/1999/xlink" x="0px" y="0px"
	 width="841.89px" height="595.275px" viewBox="0 0 841.89 595.275" enable-background="new 0 0 841.89 595.275"
	 xml:space="preserve">
<g>
	<polygon fill="#003C7F" points="722.9,183.497 439.343,184.108 445.972,137.908 722.9,137.908 	"/>
</g>
<g>
	<path fill="#FFFFFF" d="M477.436,156.893c-1.198-0.397-2.172-0.601-2.913-0.601c-1.981,0-3.584,0.649-4.821,1.941v13.657h-5.875
		v-18.891h5.347v2.238c2.012-1.79,4.325-2.683,6.941-2.683c0.246,0,0.687,0.021,1.321,0.063V156.893z"/>
	<path fill="#FFFFFF" d="M498.307,162.464c0,6.556-3.139,9.838-9.418,9.838c-6.313,0-9.474-3.282-9.474-9.838
		c0-6.588,3.16-9.879,9.474-9.879C495.168,152.585,498.307,155.876,498.307,162.464z M492.274,162.46
		c0-4.337-1.127-6.509-3.386-6.509c-2.293,0-3.44,2.171-3.44,6.509c0,4.338,1.147,6.508,3.44,6.508
		C491.147,168.968,492.274,166.798,492.274,162.46z"/>
	<path fill="#FFFFFF" d="M522.571,171.89h-6.143l-5.036-9.676l-2.438,2.258v7.417h-5.874v-25.812h5.874v13.136l6.465-6.214h6.465
		l-6.357,5.897L522.571,171.89z"/>
	<path fill="#FFFFFF" d="M553.146,156.213l-11.394,12.47h11.339v3.207h-17.646v-3.214l11.497-12.47h-10.647v-3.207h16.851V156.213z"
		/>
	<path fill="#FFFFFF" d="M575.336,171.89h-5.842l-0.318-1.695c-2.147,1.341-4.401,2.013-6.763,2.013
		c-1.904,0-3.385-0.381-4.445-1.147c-1.06-0.765-1.587-1.841-1.587-3.229c0-3.719,4.21-6.498,12.637-8.334v-1.342
		c0-1.551-0.937-2.329-2.81-2.329c-2.156,0-3.318,0.9-3.497,2.697h-5.83c0.215-1.816,1.176-3.25,2.89-4.297
		c1.714-1.052,3.929-1.576,6.651-1.576c3.251,0,5.623,0.659,7.107,1.977c0.992,0.892,1.489,2.436,1.489,4.624v7.838
		C575.019,168.949,575.125,170.548,575.336,171.89z M569.018,167.267l0.021-4.91c-4.481,1.484-6.72,3.096-6.72,4.838
		c0,0.563,0.246,1.023,0.737,1.377c0.493,0.353,1.108,0.526,1.846,0.526C566.203,169.099,567.577,168.489,569.018,167.267z"/>
	<path fill="#FFFFFF" d="M589.694,153.919l-3.021,1.413v16.558h-5.396v-14.442l-3.021,1.412v-3.528l3.021-1.413v-7.838h5.396v5.683
		l3.021-1.412V153.919z"/>
	<path fill="#FFFFFF" d="M598.953,171.89h-6.032v-4.19h6.032V171.89z"/>
	<path fill="#FFFFFF" d="M632.514,171.89h-16.205v-3.428h5.299V151.63h-5.299v-2.402c2.33-0.588,4.626-1.563,6.886-2.928h4.287
		v22.161h5.032V171.89z"/>
	<path fill="#FFFFFF" d="M656.349,159.289c0,4.56-0.707,7.842-2.115,9.839c-1.483,2.115-3.988,3.175-7.518,3.175
		c-2.678,0-4.786-0.624-6.321-1.866c-1.536-1.247-2.302-2.972-2.302-5.186v-0.21h5.652c0,2.472,1.008,3.707,3.019,3.707
		c1.449,0,2.386-0.659,2.812-1.976c0.353-1.012,0.547-3.1,0.583-6.25c-1.802,1.06-3.588,1.59-5.354,1.59
		c-2.263,0-4.021-0.635-5.275-1.904c-1.254-1.271-1.88-3.103-1.88-5.504c0-5.855,3.034-8.783,9.111-8.783
		c3.604,0,6.128,1.083,7.576,3.246C655.678,151.161,656.349,154.538,656.349,159.289z M650.094,154.658
		c0-3.497-1.111-5.248-3.33-5.248c-1.971,0-2.956,1.656-2.956,4.965c0,2.703,1.04,4.052,3.124,4.052c0.81,0,1.834-0.433,3.067-1.301
		C650.063,156.539,650.094,155.717,650.094,154.658z"/>
	<path fill="#FFFFFF" d="M678.182,171.89h-16.205v-3.428h5.299V151.63h-5.299v-2.402c2.33-0.588,4.628-1.563,6.886-2.928h4.286
		v22.161h5.033V171.89z"/>
	<path fill="#FFFFFF" d="M702.012,159.289c0,4.56-0.704,7.842-2.113,9.839c-1.485,2.115-3.988,3.175-7.518,3.175
		c-2.679,0-4.786-0.624-6.322-1.866c-1.535-1.247-2.303-2.972-2.303-5.186v-0.21h5.652c0,2.472,1.009,3.707,3.021,3.707
		c1.449,0,2.385-0.659,2.81-1.976c0.353-1.012,0.547-3.1,0.583-6.25c-1.8,1.06-3.588,1.59-5.353,1.59
		c-2.263,0-4.021-0.635-5.275-1.904c-1.255-1.271-1.881-3.103-1.881-5.504c0-5.855,3.036-8.783,9.112-8.783
		c3.604,0,6.126,1.083,7.576,3.246C701.342,151.161,702.012,154.538,702.012,159.289z M695.758,154.658
		c0-3.497-1.111-5.248-3.329-5.248c-1.973,0-2.956,1.656-2.956,4.965c0,2.703,1.039,4.052,3.123,4.052
		c0.81,0,1.834-0.433,3.067-1.301C695.727,156.539,695.758,155.717,695.758,154.658z"/>
</g>
<g>
	<path fill="#003C7F" d="M716.805,385.993h-539.86l6.096,6.095V186.732l-6.096,6.095h539.86l-6.097-6.095v205.356L716.805,385.993z
		 M716.805,180.635h-539.86h-6.096v6.097v205.356v6.096h6.096h539.86h6.096v-6.096V186.732v-6.097H716.805z"/>
</g>
<g>
	<polygon fill="#939598" points="389.294,192.827 716.805,192.827 722.9,192.827 722.9,180.635 716.805,180.635 389.294,180.635 
		383.199,180.635 383.199,192.827 	"/>
</g>
<g>
	<path fill="#939598" d="M201.408,377.012c0.075-4.886,0.162-43.267,0.277-49.126c0.116-5.857,0.171-9.195,0.171-10.02v-86.987
		c0-0.75-0.055-4.056-0.171-9.938c-0.115-5.877-0.203-11.287-0.277-16.228h62.225c-0.15,2.171-0.287,4.544-0.394,7.116
		c-0.115,2.575-0.207,5.398-0.286,8.457c6.466-6.449,13.129-11.211,20.007-14.288c6.866-3.067,14.323-4.611,22.36-4.611
		c17.275,0,30.983,5.504,41.128,16.501c10.138,11.006,15.211,25.888,15.211,44.662c0,18.771-5.073,33.653-15.211,44.656
		c-10.145,11-23.853,16.498-41.128,16.498c-8.042,0-15.494-1.537-22.36-4.611c-6.878-3.072-13.586-7.831-20.118-14.287v13.061
		c0,0.377,0.092,3.436,0.281,9.172c0.188,5.75,0.358,44.414,0.509,49.974H201.408z M262.843,230.434v64.23
		c4.584,5.561,9.088,9.898,13.525,13.014c4.429,3.124,8.334,4.679,11.72,4.679c2.933,0,4.993-1.051,6.195-3.154
		c1.203-2.109,1.801-5.746,1.801-10.93v-71.561c0-5.186-0.599-8.805-1.801-10.873s-3.262-3.095-6.195-3.095
		c-3.385,0-7.291,1.554-11.72,4.67C271.931,220.533,267.427,224.875,262.843,230.434"/>
</g>
<g>
	<path fill="#939598" d="M383.047,164.84c10.498-4.064,21.004-8.342,31.501-12.852c10.505-4.512,20.963-9.206,31.388-14.092
		c-0.075,2.631-0.263,10.342-0.563,15.605c-0.6,13.378-2.596,159.431-2.596,159.431c0,4.198,0.584,7.254,1.747,9.164
		c1.17,1.916,3.027,2.872,5.588,2.872c2.477,0,4.846-0.845,7.107-2.531c2.25-1.688,4.735-4.517,7.441-8.496
		c0.829-1.194,1.806-2.842,2.933-4.946c2.18-4.119,4.357-6.183,6.541-6.183c1.202,0,2.163,0.397,2.881,1.186
		c0.715,0.786,1.067,1.782,1.067,2.985c0,1.873-1.255,4.651-3.771,8.329c-2.512,3.68-5.722,7.204-9.623,10.582
		c-4.731,4.282-10.648,7.584-17.736,9.906c-7.096,2.333-14.848,3.491-23.258,3.491c-13.886,0-24.319-3.582-31.3-10.746
		c-6.98-7.168-10.469-17.88-10.469-32.139v-1.353L383.047,164.84z"/>
</g>
<g>
	<path fill="#939598" d="M486.131,334.823c0.075-4.881,0.167-10.263,0.277-16.16c0.111-5.894,0.167-9.215,0.167-9.97v-77.83
		c0-0.75-0.056-4.061-0.167-9.929c-0.11-5.878-0.202-11.284-0.277-16.221h55.689c-0.071,1.718-0.187,4.295-0.333,7.723
		c-0.152,3.437-0.268,5.973-0.339,7.615c7.426-6.063,14.538-10.576,21.337-13.532c6.794-2.961,13.532-4.441,20.212-4.441
		c7.204,0,13.495,1.707,18.859,5.112c5.37,3.409,9.668,8.404,12.895,15.002c8.859-7.045,16.756-12.157,23.701-15.34
		c6.942-3.183,13.569-4.774,19.874-4.774c12.086,0,20.996,3.735,26.738,11.191c5.747,7.465,8.616,19.038,8.616,34.713v60.71
		c0,0.755,0.06,4.093,0.172,10.024c0.109,5.934,0.206,11.3,0.281,16.105h-55.81c0.073-4.806,0.168-10.172,0.279-16.105
		c0.11-5.932,0.171-9.27,0.171-10.024v-78.278c0-4.581-0.401-7.68-1.188-9.291c-0.793-1.618-2.24-2.425-4.34-2.425
		c-1.581,0-3.558,0.79-5.926,2.366c-2.366,1.575-5.62,4.317-9.759,8.223v79.405c0,0.755,0.054,4.076,0.17,9.97
		c0.111,5.897,0.207,11.279,0.286,16.16h-55.812c0.15-5.556,0.32-11.223,0.512-17.01c0.183-5.778,0.285-8.822,0.285-9.12v-78.278
		c0-5.032-0.342-8.24-1.02-9.632c-0.683-1.385-1.957-2.083-3.838-2.083c-1.877,0-4.136,0.829-6.771,2.48
		c-2.63,1.65-5.939,4.354-9.926,8.108v79.405c0,0.298,0.092,3.342,0.278,9.12c0.191,5.787,0.322,11.454,0.394,17.01H486.131z"/>
</g>
</svg>
